<svg width="16" height="16" viewBox="0 0 16 16" fill="none" xmlns="http://www.w3.org/2000/svg">
<path fill-rule="evenodd" clip-rule="evenodd" d="M2.16732 8.83464C1.7069 8.83464 1.33398 8.46172 1.33398 8.0013C1.33398 7.54089 1.7069 7.16797 2.16732 7.16797C2.62773 7.16797 3.00065 7.54089 3.00065 8.0013C3.00065 8.46172 2.62773 8.83464 2.16732 8.83464Z" fill="white" stroke="white" stroke-width="1.5" stroke-linecap="round" stroke-linejoin="round"/>
<path fill-rule="evenodd" clip-rule="evenodd" d="M8.0013 8.83464C7.54089 8.83464 7.16797 8.46172 7.16797 8.0013C7.16797 7.54089 7.54089 7.16797 8.0013 7.16797C8.46172 7.16797 8.83464 7.54089 8.83464 8.0013C8.83464 8.46172 8.46172 8.83464 8.0013 8.83464Z" fill="white" stroke="white" stroke-width="1.5" stroke-linecap="round" stroke-linejoin="round"/>
<path fill-rule="evenodd" clip-rule="evenodd" d="M13.8333 8.83464C13.3729 8.83464 13 8.46172 13 8.0013C13 7.54089 13.3729 7.16797 13.8333 7.16797C14.2937 7.16797 14.6667 7.54089 14.6667 8.0013C14.6667 8.46172 14.2937 8.83464 13.8333 8.83464Z" fill="white" stroke="white" stroke-width="1.5" stroke-linecap="round" stroke-linejoin="round"/>
<path fill-rule="evenodd" clip-rule="evenodd" d="M2.16732 14.6667C1.7069 14.6667 1.33398 14.2937 1.33398 13.8333C1.33398 13.3729 1.7069 13 2.16732 13C2.62773 13 3.00065 13.3729 3.00065 13.8333C3.00065 14.2937 2.62773 14.6667 2.16732 14.6667Z" fill="white" stroke="white" stroke-width="1.5" stroke-linecap="round" stroke-linejoin="round"/>
<path fill-rule="evenodd" clip-rule="evenodd" d="M8.0013 14.6667C7.54089 14.6667 7.16797 14.2937 7.16797 13.8333C7.16797 13.3729 7.54089 13 8.0013 13C8.46172 13 8.83464 13.3729 8.83464 13.8333C8.83464 14.2937 8.46172 14.6667 8.0013 14.6667Z" fill="white" stroke="white" stroke-width="1.5" stroke-linecap="round" stroke-linejoin="round"/>
<path fill-rule="evenodd" clip-rule="evenodd" d="M13.8333 14.6667C13.3729 14.6667 13 14.2937 13 13.8333C13 13.3729 13.3729 13 13.8333 13C14.2937 13 14.6667 13.3729 14.6667 13.8333C14.6667 14.2937 14.2937 14.6667 13.8333 14.6667Z" fill="white" stroke="white" stroke-width="1.5" stroke-linecap="round" stroke-linejoin="round"/>
<path fill-rule="evenodd" clip-rule="evenodd" d="M2.16732 3.00065C1.7069 3.00065 1.33398 2.62773 1.33398 2.16732C1.33398 1.7069 1.7069 1.33398 2.16732 1.33398C2.62773 1.33398 3.00065 1.7069 3.00065 2.16732C3.00065 2.62773 2.62773 3.00065 2.16732 3.00065Z" fill="white" stroke="white" stroke-width="1.5" stroke-linecap="round" stroke-linejoin="round"/>
<path fill-rule="evenodd" clip-rule="evenodd" d="M8.0013 3.00065C7.54089 3.00065 7.16797 2.62773 7.16797 2.16732C7.16797 1.7069 7.54089 1.33398 8.0013 1.33398C8.46172 1.33398 8.83464 1.7069 8.83464 2.16732C8.83464 2.62773 8.46172 3.00065 8.0013 3.00065Z" fill="white" stroke="white" stroke-width="1.5" stroke-linecap="round" stroke-linejoin="round"/>
<path fill-rule="evenodd" clip-rule="evenodd" d="M13.8333 3.00065C13.3729 3.00065 13 2.62773 13 2.16732C13 1.7069 13.3729 1.33398 13.8333 1.33398C14.2937 1.33398 14.6667 1.7069 14.6667 2.16732C14.6667 2.62773 14.2937 3.00065 13.8333 3.00065Z" fill="white" stroke="white" stroke-width="1.5" stroke-linecap="round" stroke-linejoin="round"/>
</svg>
