<svg width="206" height="40" viewBox="0 0 206 40" fill="none" xmlns="http://www.w3.org/2000/svg">
<path d="M63.5156 12.2812C61.3802 12.2812 59.474 13.1198 57.7969 14.7969C56.1302 16.474 55.2969 18.401 55.2969 20.5781C55.2969 22.4115 55.9062 23.9479 57.125 25.1875C58.3542 26.4167 59.9323 27.0312 61.8594 27.0312C63.974 27.0312 65.8698 26.2135 67.5469 24.5781C69.2344 22.9323 70.0781 20.9792 70.0781 18.7188C70.0781 16.8854 69.4583 15.3542 68.2188 14.125C66.9792 12.8958 65.4115 12.2812 63.5156 12.2812ZM50.2656 20.8594C50.2656 17.4844 51.6302 14.5 54.3594 11.9062C57.099 9.30208 60.2604 8 63.8438 8C67.1458 8 69.849 9.02083 71.9531 11.0625C74.0573 13.0938 75.1094 15.5573 75.1094 18.4531C75.1094 20.7135 74.4792 22.8438 73.2188 24.8438C71.9583 26.8333 70.2865 28.4167 68.2031 29.5938C66.1302 30.7708 63.9271 31.3594 61.5938 31.3594C58.2917 31.3594 55.5781 30.3438 53.4531 28.3125C51.3281 26.2708 50.2656 23.7865 50.2656 20.8594Z" fill="#2E1066"/>
<path d="M63.5156 12.2812C61.3802 12.2812 59.474 13.1198 57.7969 14.7969C56.1302 16.474 55.2969 18.401 55.2969 20.5781C55.2969 22.4115 55.9062 23.9479 57.125 25.1875C58.3542 26.4167 59.9323 27.0312 61.8594 27.0312C63.974 27.0312 65.8698 26.2135 67.5469 24.5781C69.2344 22.9323 70.0781 20.9792 70.0781 18.7188C70.0781 16.8854 69.4583 15.3542 68.2188 14.125C66.9792 12.8958 65.4115 12.2812 63.5156 12.2812ZM50.2656 20.8594C50.2656 17.4844 51.6302 14.5 54.3594 11.9062C57.099 9.30208 60.2604 8 63.8438 8C67.1458 8 69.849 9.02083 71.9531 11.0625C74.0573 13.0938 75.1094 15.5573 75.1094 18.4531C75.1094 20.7135 74.4792 22.8438 73.2188 24.8438C71.9583 26.8333 70.2865 28.4167 68.2031 29.5938C66.1302 30.7708 63.9271 31.3594 61.5938 31.3594C58.2917 31.3594 55.5781 30.3438 53.4531 28.3125C51.3281 26.2708 50.2656 23.7865 50.2656 20.8594Z" fill="#410F9E"/>
<path d="M63.5156 12.2812C61.3802 12.2812 59.474 13.1198 57.7969 14.7969C56.1302 16.474 55.2969 18.401 55.2969 20.5781C55.2969 22.4115 55.9062 23.9479 57.125 25.1875C58.3542 26.4167 59.9323 27.0312 61.8594 27.0312C63.974 27.0312 65.8698 26.2135 67.5469 24.5781C69.2344 22.9323 70.0781 20.9792 70.0781 18.7188C70.0781 16.8854 69.4583 15.3542 68.2188 14.125C66.9792 12.8958 65.4115 12.2812 63.5156 12.2812ZM50.2656 20.8594C50.2656 17.4844 51.6302 14.5 54.3594 11.9062C57.099 9.30208 60.2604 8 63.8438 8C67.1458 8 69.849 9.02083 71.9531 11.0625C74.0573 13.0938 75.1094 15.5573 75.1094 18.4531C75.1094 20.7135 74.4792 22.8438 73.2188 24.8438C71.9583 26.8333 70.2865 28.4167 68.2031 29.5938C66.1302 30.7708 63.9271 31.3594 61.5938 31.3594C58.2917 31.3594 55.5781 30.3438 53.4531 28.3125C51.3281 26.2708 50.2656 23.7865 50.2656 20.8594Z" fill="#453888"/>
<path d="M63.5156 12.2812C61.3802 12.2812 59.474 13.1198 57.7969 14.7969C56.1302 16.474 55.2969 18.401 55.2969 20.5781C55.2969 22.4115 55.9062 23.9479 57.125 25.1875C58.3542 26.4167 59.9323 27.0312 61.8594 27.0312C63.974 27.0312 65.8698 26.2135 67.5469 24.5781C69.2344 22.9323 70.0781 20.9792 70.0781 18.7188C70.0781 16.8854 69.4583 15.3542 68.2188 14.125C66.9792 12.8958 65.4115 12.2812 63.5156 12.2812ZM50.2656 20.8594C50.2656 17.4844 51.6302 14.5 54.3594 11.9062C57.099 9.30208 60.2604 8 63.8438 8C67.1458 8 69.849 9.02083 71.9531 11.0625C74.0573 13.0938 75.1094 15.5573 75.1094 18.4531C75.1094 20.7135 74.4792 22.8438 73.2188 24.8438C71.9583 26.8333 70.2865 28.4167 68.2031 29.5938C66.1302 30.7708 63.9271 31.3594 61.5938 31.3594C58.2917 31.3594 55.5781 30.3438 53.4531 28.3125C51.3281 26.2708 50.2656 23.7865 50.2656 20.8594Z" fill="#5946D7"/>
<path d="M97.5462 8.46875H102.343L97.6087 30.875H93.6087L85.4212 16.6094L82.4056 30.875H77.6087L82.3431 8.46875H86.3431L94.5462 22.75L97.5462 8.46875Z" fill="#2E1066"/>
<path d="M97.5462 8.46875H102.343L97.6087 30.875H93.6087L85.4212 16.6094L82.4056 30.875H77.6087L82.3431 8.46875H86.3431L94.5462 22.75L97.5462 8.46875Z" fill="#410F9E"/>
<path d="M97.5462 8.46875H102.343L97.6087 30.875H93.6087L85.4212 16.6094L82.4056 30.875H77.6087L82.3431 8.46875H86.3431L94.5462 22.75L97.5462 8.46875Z" fill="#453888"/>
<path d="M97.5462 8.46875H102.343L97.6087 30.875H93.6087L85.4212 16.6094L82.4056 30.875H77.6087L82.3431 8.46875H86.3431L94.5462 22.75L97.5462 8.46875Z" fill="#5946D7"/>
<path d="M109.702 26.5625H121.702L120.796 30.875H103.999L108.733 8.46875H125.217L124.327 12.7969H112.639L111.686 17.2812H120.796L119.874 21.5938H110.749L109.702 26.5625Z" fill="#2E1066"/>
<path d="M109.702 26.5625H121.702L120.796 30.875H103.999L108.733 8.46875H125.217L124.327 12.7969H112.639L111.686 17.2812H120.796L119.874 21.5938H110.749L109.702 26.5625Z" fill="#410F9E"/>
<path d="M109.702 26.5625H121.702L120.796 30.875H103.999L108.733 8.46875H125.217L124.327 12.7969H112.639L111.686 17.2812H120.796L119.874 21.5938H110.749L109.702 26.5625Z" fill="#453888"/>
<path d="M109.702 26.5625H121.702L120.796 30.875H103.999L108.733 8.46875H125.217L124.327 12.7969H112.639L111.686 17.2812H120.796L119.874 21.5938H110.749L109.702 26.5625Z" fill="#5946D7"/>
<path d="M125.92 30.875L130.654 8.46875H140.123C142.019 8.46875 143.613 9.10938 144.904 10.3906C146.206 11.6719 146.857 13.1667 146.857 14.875C146.857 15.9792 146.665 17 146.279 17.9375C145.894 18.8646 145.425 19.5938 144.873 20.125C144.331 20.6562 143.795 21.1042 143.264 21.4688C142.732 21.8333 142.274 22.0781 141.889 22.2031L141.311 22.3906L144.326 30.875H139.326L136.67 23.0312H132.389L130.717 30.875H125.92ZM138.217 18.7188C139.196 18.7188 140.061 18.4219 140.811 17.8281C141.571 17.224 141.951 16.4219 141.951 15.4219C141.951 14.6927 141.732 14.0729 141.295 13.5625C140.857 13.0521 140.279 12.7969 139.561 12.7969H134.561L133.279 18.7188H138.217Z" fill="#2E1066"/>
<path d="M125.92 30.875L130.654 8.46875H140.123C142.019 8.46875 143.613 9.10938 144.904 10.3906C146.206 11.6719 146.857 13.1667 146.857 14.875C146.857 15.9792 146.665 17 146.279 17.9375C145.894 18.8646 145.425 19.5938 144.873 20.125C144.331 20.6562 143.795 21.1042 143.264 21.4688C142.732 21.8333 142.274 22.0781 141.889 22.2031L141.311 22.3906L144.326 30.875H139.326L136.67 23.0312H132.389L130.717 30.875H125.92ZM138.217 18.7188C139.196 18.7188 140.061 18.4219 140.811 17.8281C141.571 17.224 141.951 16.4219 141.951 15.4219C141.951 14.6927 141.732 14.0729 141.295 13.5625C140.857 13.0521 140.279 12.7969 139.561 12.7969H134.561L133.279 18.7188H138.217Z" fill="#410F9E"/>
<path d="M125.92 30.875L130.654 8.46875H140.123C142.019 8.46875 143.613 9.10938 144.904 10.3906C146.206 11.6719 146.857 13.1667 146.857 14.875C146.857 15.9792 146.665 17 146.279 17.9375C145.894 18.8646 145.425 19.5938 144.873 20.125C144.331 20.6562 143.795 21.1042 143.264 21.4688C142.732 21.8333 142.274 22.0781 141.889 22.2031L141.311 22.3906L144.326 30.875H139.326L136.67 23.0312H132.389L130.717 30.875H125.92ZM138.217 18.7188C139.196 18.7188 140.061 18.4219 140.811 17.8281C141.571 17.224 141.951 16.4219 141.951 15.4219C141.951 14.6927 141.732 14.0729 141.295 13.5625C140.857 13.0521 140.279 12.7969 139.561 12.7969H134.561L133.279 18.7188H138.217Z" fill="#453888"/>
<path d="M125.92 30.875L130.654 8.46875H140.123C142.019 8.46875 143.613 9.10938 144.904 10.3906C146.206 11.6719 146.857 13.1667 146.857 14.875C146.857 15.9792 146.665 17 146.279 17.9375C145.894 18.8646 145.425 19.5938 144.873 20.125C144.331 20.6562 143.795 21.1042 143.264 21.4688C142.732 21.8333 142.274 22.0781 141.889 22.2031L141.311 22.3906L144.326 30.875H139.326L136.67 23.0312H132.389L130.717 30.875H125.92ZM138.217 18.7188C139.196 18.7188 140.061 18.4219 140.811 17.8281C141.571 17.224 141.951 16.4219 141.951 15.4219C141.951 14.6927 141.732 14.0729 141.295 13.5625C140.857 13.0521 140.279 12.7969 139.561 12.7969H134.561L133.279 18.7188H138.217Z" fill="#5946D7"/>
<path d="M148.232 29.0156C148.232 28.3594 148.518 27.7604 149.091 27.2188C149.664 26.6667 150.326 26.3906 151.076 26.3906C151.763 26.3906 152.326 26.6042 152.763 27.0312C153.211 27.4583 153.435 27.974 153.435 28.5781C153.435 29.2865 153.149 29.901 152.576 30.4219C152.003 30.9323 151.341 31.1875 150.591 31.1875C149.904 31.1875 149.336 30.9688 148.888 30.5312C148.451 30.0938 148.232 29.5885 148.232 29.0156Z" fill="#2E1066"/>
<path d="M148.232 29.0156C148.232 28.3594 148.518 27.7604 149.091 27.2188C149.664 26.6667 150.326 26.3906 151.076 26.3906C151.763 26.3906 152.326 26.6042 152.763 27.0312C153.211 27.4583 153.435 27.974 153.435 28.5781C153.435 29.2865 153.149 29.901 152.576 30.4219C152.003 30.9323 151.341 31.1875 150.591 31.1875C149.904 31.1875 149.336 30.9688 148.888 30.5312C148.451 30.0938 148.232 29.5885 148.232 29.0156Z" fill="#410F9E"/>
<path d="M148.232 29.0156C148.232 28.3594 148.518 27.7604 149.091 27.2188C149.664 26.6667 150.326 26.3906 151.076 26.3906C151.763 26.3906 152.326 26.6042 152.763 27.0312C153.211 27.4583 153.435 27.974 153.435 28.5781C153.435 29.2865 153.149 29.901 152.576 30.4219C152.003 30.9323 151.341 31.1875 150.591 31.1875C149.904 31.1875 149.336 30.9688 148.888 30.5312C148.451 30.0938 148.232 29.5885 148.232 29.0156Z" fill="#453888"/>
<path d="M148.232 29.0156C148.232 28.3594 148.518 27.7604 149.091 27.2188C149.664 26.6667 150.326 26.3906 151.076 26.3906C151.763 26.3906 152.326 26.6042 152.763 27.0312C153.211 27.4583 153.435 27.974 153.435 28.5781C153.435 29.2865 153.149 29.901 152.576 30.4219C152.003 30.9323 151.341 31.1875 150.591 31.1875C149.904 31.1875 149.336 30.9688 148.888 30.5312C148.451 30.0938 148.232 29.5885 148.232 29.0156Z" fill="#5946D7"/>
<path d="M157.919 30.875L162.653 8.46875H172.122C174.018 8.46875 175.611 9.10938 176.903 10.3906C178.205 11.6719 178.856 13.1667 178.856 14.875C178.856 15.9792 178.664 17 178.278 17.9375C177.893 18.8646 177.424 19.5938 176.872 20.125C176.33 20.6562 175.794 21.1042 175.262 21.4688C174.731 21.8333 174.273 22.0781 173.887 22.2031L173.309 22.3906L176.325 30.875H171.325L168.669 23.0312H164.387L162.716 30.875H157.919ZM170.216 18.7188C171.195 18.7188 172.059 18.4219 172.809 17.8281C173.57 17.224 173.95 16.4219 173.95 15.4219C173.95 14.6927 173.731 14.0729 173.294 13.5625C172.856 13.0521 172.278 12.7969 171.559 12.7969H166.559L165.278 18.7188H170.216Z" fill="#2E1066"/>
<path d="M157.919 30.875L162.653 8.46875H172.122C174.018 8.46875 175.611 9.10938 176.903 10.3906C178.205 11.6719 178.856 13.1667 178.856 14.875C178.856 15.9792 178.664 17 178.278 17.9375C177.893 18.8646 177.424 19.5938 176.872 20.125C176.33 20.6562 175.794 21.1042 175.262 21.4688C174.731 21.8333 174.273 22.0781 173.887 22.2031L173.309 22.3906L176.325 30.875H171.325L168.669 23.0312H164.387L162.716 30.875H157.919ZM170.216 18.7188C171.195 18.7188 172.059 18.4219 172.809 17.8281C173.57 17.224 173.95 16.4219 173.95 15.4219C173.95 14.6927 173.731 14.0729 173.294 13.5625C172.856 13.0521 172.278 12.7969 171.559 12.7969H166.559L165.278 18.7188H170.216Z" fill="#410F9E"/>
<path d="M157.919 30.875L162.653 8.46875H172.122C174.018 8.46875 175.611 9.10938 176.903 10.3906C178.205 11.6719 178.856 13.1667 178.856 14.875C178.856 15.9792 178.664 17 178.278 17.9375C177.893 18.8646 177.424 19.5938 176.872 20.125C176.33 20.6562 175.794 21.1042 175.262 21.4688C174.731 21.8333 174.273 22.0781 173.887 22.2031L173.309 22.3906L176.325 30.875H171.325L168.669 23.0312H164.387L162.716 30.875H157.919ZM170.216 18.7188C171.195 18.7188 172.059 18.4219 172.809 17.8281C173.57 17.224 173.95 16.4219 173.95 15.4219C173.95 14.6927 173.731 14.0729 173.294 13.5625C172.856 13.0521 172.278 12.7969 171.559 12.7969H166.559L165.278 18.7188H170.216Z" fill="#453888"/>
<path d="M157.919 30.875L162.653 8.46875H172.122C174.018 8.46875 175.611 9.10938 176.903 10.3906C178.205 11.6719 178.856 13.1667 178.856 14.875C178.856 15.9792 178.664 17 178.278 17.9375C177.893 18.8646 177.424 19.5938 176.872 20.125C176.33 20.6562 175.794 21.1042 175.262 21.4688C174.731 21.8333 174.273 22.0781 173.887 22.2031L173.309 22.3906L176.325 30.875H171.325L168.669 23.0312H164.387L162.716 30.875H157.919ZM170.216 18.7188C171.195 18.7188 172.059 18.4219 172.809 17.8281C173.57 17.224 173.95 16.4219 173.95 15.4219C173.95 14.6927 173.731 14.0729 173.294 13.5625C172.856 13.0521 172.278 12.7969 171.559 12.7969H166.559L165.278 18.7188H170.216Z" fill="#5946D7"/>
<path d="M191.84 27.0312C193.205 27.0312 194.449 26.5312 195.574 25.5312C196.71 24.5312 197.439 23.2708 197.762 21.75L200.574 8.46875H205.371L202.559 21.75C201.965 24.5417 200.673 26.8438 198.684 28.6562C196.705 30.4583 194.35 31.3594 191.621 31.3594C189.121 31.3594 187.033 30.625 185.356 29.1562C183.689 27.6771 182.856 25.8073 182.856 23.5469C182.856 22.974 182.918 22.375 183.043 21.75L185.856 8.46875H190.652L187.84 21.75C187.757 22.1146 187.715 22.5 187.715 22.9062C187.715 24.125 188.1 25.1198 188.871 25.8906C189.652 26.651 190.642 27.0312 191.84 27.0312Z" fill="#2E1066"/>
<path d="M191.84 27.0312C193.205 27.0312 194.449 26.5312 195.574 25.5312C196.71 24.5312 197.439 23.2708 197.762 21.75L200.574 8.46875H205.371L202.559 21.75C201.965 24.5417 200.673 26.8438 198.684 28.6562C196.705 30.4583 194.35 31.3594 191.621 31.3594C189.121 31.3594 187.033 30.625 185.356 29.1562C183.689 27.6771 182.856 25.8073 182.856 23.5469C182.856 22.974 182.918 22.375 183.043 21.75L185.856 8.46875H190.652L187.84 21.75C187.757 22.1146 187.715 22.5 187.715 22.9062C187.715 24.125 188.1 25.1198 188.871 25.8906C189.652 26.651 190.642 27.0312 191.84 27.0312Z" fill="#410F9E"/>
<path d="M191.84 27.0312C193.205 27.0312 194.449 26.5312 195.574 25.5312C196.71 24.5312 197.439 23.2708 197.762 21.75L200.574 8.46875H205.371L202.559 21.75C201.965 24.5417 200.673 26.8438 198.684 28.6562C196.705 30.4583 194.35 31.3594 191.621 31.3594C189.121 31.3594 187.033 30.625 185.356 29.1562C183.689 27.6771 182.856 25.8073 182.856 23.5469C182.856 22.974 182.918 22.375 183.043 21.75L185.856 8.46875H190.652L187.84 21.75C187.757 22.1146 187.715 22.5 187.715 22.9062C187.715 24.125 188.1 25.1198 188.871 25.8906C189.652 26.651 190.642 27.0312 191.84 27.0312Z" fill="#453888"/>
<path d="M191.84 27.0312C193.205 27.0312 194.449 26.5312 195.574 25.5312C196.71 24.5312 197.439 23.2708 197.762 21.75L200.574 8.46875H205.371L202.559 21.75C201.965 24.5417 200.673 26.8438 198.684 28.6562C196.705 30.4583 194.35 31.3594 191.621 31.3594C189.121 31.3594 187.033 30.625 185.356 29.1562C183.689 27.6771 182.856 25.8073 182.856 23.5469C182.856 22.974 182.918 22.375 183.043 21.75L185.856 8.46875H190.652L187.84 21.75C187.757 22.1146 187.715 22.5 187.715 22.9062C187.715 24.125 188.1 25.1198 188.871 25.8906C189.652 26.651 190.642 27.0312 191.84 27.0312Z" fill="#5946D7"/>
<g clip-path="url(#clip0_1_15627)">
<g clip-path="url(#clip1_1_15627)">
<g clip-path="url(#clip2_1_15627)">
<path d="M21.2443 38.4114L21.2439 38.4084C21.2441 38.4099 21.2443 38.4114 21.2444 38.4128L21.2443 38.4114ZM38.4113 18.7562L38.4098 18.7564L38.4113 18.7562ZM28.758 7.54255L28.7646 7.54908C28.7624 7.5469 28.7602 7.54473 28.758 7.54255ZM32.0184 7.9152L32.7422 8.48469L32.0184 7.9152Z" fill="#2E1066"/>
<path d="M21.2443 38.4114L21.2439 38.4084C21.2441 38.4099 21.2443 38.4114 21.2444 38.4128L21.2443 38.4114ZM38.4113 18.7562L38.4098 18.7564L38.4113 18.7562ZM28.758 7.54255L28.7646 7.54908C28.7624 7.5469 28.7602 7.54473 28.758 7.54255ZM32.0184 7.9152L32.7422 8.48469L32.0184 7.9152Z" fill="#410F9E"/>
<path d="M21.2443 38.4114L21.2439 38.4084C21.2441 38.4099 21.2443 38.4114 21.2444 38.4128L21.2443 38.4114ZM38.4113 18.7562L38.4098 18.7564L38.4113 18.7562ZM28.758 7.54255L28.7646 7.54908C28.7624 7.5469 28.7602 7.54473 28.758 7.54255ZM32.0184 7.9152L32.7422 8.48469L32.0184 7.9152Z" fill="#453888"/>
<path d="M21.2443 38.4114L21.2439 38.4084C21.2441 38.4099 21.2443 38.4114 21.2444 38.4128L21.2443 38.4114ZM38.4113 18.7562L38.4098 18.7564L38.4113 18.7562ZM28.758 7.54255L28.7646 7.54908C28.7624 7.5469 28.7602 7.54473 28.758 7.54255ZM32.0184 7.9152L32.7422 8.48469L32.0184 7.9152Z" fill="#5946D7"/>
<path d="M21.2443 38.4114L21.2439 38.4084C21.2441 38.4099 21.2443 38.4114 21.2444 38.4128L21.2443 38.4114ZM38.4113 18.7562L38.4098 18.7564L38.4113 18.7562ZM28.758 7.54255L28.7646 7.54908C28.7624 7.5469 28.7602 7.54473 28.758 7.54255ZM32.0184 7.9152L32.7422 8.48469L32.0184 7.9152Z" stroke="#2E1066" stroke-width="10" stroke-linecap="round" stroke-linejoin="round"/>
<path d="M21.2443 38.4114L21.2439 38.4084C21.2441 38.4099 21.2443 38.4114 21.2444 38.4128L21.2443 38.4114ZM38.4113 18.7562L38.4098 18.7564L38.4113 18.7562ZM28.758 7.54255L28.7646 7.54908C28.7624 7.5469 28.7602 7.54473 28.758 7.54255ZM32.0184 7.9152L32.7422 8.48469L32.0184 7.9152Z" stroke="#410F9E" stroke-width="10" stroke-linecap="round" stroke-linejoin="round"/>
<path d="M21.2443 38.4114L21.2439 38.4084C21.2441 38.4099 21.2443 38.4114 21.2444 38.4128L21.2443 38.4114ZM38.4113 18.7562L38.4098 18.7564L38.4113 18.7562ZM28.758 7.54255L28.7646 7.54908C28.7624 7.5469 28.7602 7.54473 28.758 7.54255ZM32.0184 7.9152L32.7422 8.48469L32.0184 7.9152Z" stroke="#453888" stroke-width="10" stroke-linecap="round" stroke-linejoin="round"/>
<path d="M21.2443 38.4114L21.2439 38.4084C21.2441 38.4099 21.2443 38.4114 21.2444 38.4128L21.2443 38.4114ZM38.4113 18.7562L38.4098 18.7564L38.4113 18.7562ZM28.758 7.54255L28.7646 7.54908C28.7624 7.5469 28.7602 7.54473 28.758 7.54255ZM32.0184 7.9152L32.7422 8.48469L32.0184 7.9152Z" stroke="#5946D7" stroke-width="10" stroke-linecap="round" stroke-linejoin="round"/>
</g>
<circle cx="20" cy="20" r="14" fill="white"/>
<circle cx="20" cy="20" r="14" stroke="#2E1066" stroke-width="4"/>
<circle cx="20" cy="20" r="14" stroke="#410F9E" stroke-width="4"/>
<circle cx="20" cy="20" r="14" stroke="#453888" stroke-width="4"/>
<circle cx="20" cy="20" r="14" stroke="#5946D7" stroke-width="4"/>
<g clip-path="url(#clip3_1_15627)">
<path d="M23.4296 16.9234C23.4126 16.9032 23.3981 16.8836 23.3779 16.864L22.4902 15.9847C23.2264 15.8133 24.019 15.1803 24.019 14.5308C24.019 13.7741 22.9958 13.5056 22.1225 13.5056C21.2095 13.5056 21.1035 14.1476 21.0926 14.6013L18.8021 12.335C18.3368 11.8622 17.4542 11.4902 16.7945 11.4902H12.3335H12.3324H7.87038C7.21116 11.4902 6.32909 11.8622 5.86324 12.335L3.57328 14.6013C3.56138 14.1476 3.45539 13.5056 2.54333 13.5056C1.66902 13.5056 0.646321 13.7741 0.646321 14.5308C0.646321 15.1803 1.43946 15.8133 2.17572 15.9847L1.28797 16.864C1.2678 16.8836 1.25384 16.9032 1.23626 16.9234C0.286462 17.7565 -0.333984 19.3017 -0.333984 20.4229V23.7548C-0.333984 24.5635 -0.0232443 25.2973 0.4788 25.8444V27.1365C0.4788 27.8921 1.09511 28.5082 1.85309 28.5082H3.51485C4.27283 28.5082 4.88862 27.8932 4.88862 27.1365V26.8059H12.3324H12.3335H19.7767V27.1365C19.7767 27.8932 20.392 28.5082 21.151 28.5082H22.8123C23.5708 28.5082 24.186 27.8921 24.186 27.1365V25.8444C24.6886 25.2973 24.9988 24.5635 24.9988 23.7548V20.4229C24.9999 19.3017 24.3794 17.7565 23.4296 16.9234ZM6.70446 13.3421C7.02658 13.0667 7.58963 12.8577 7.87038 12.8577L10.9993 12.9995L12.6365 13.3421H16.5494C16.8301 13.3421 17.3513 13.2302 17.6734 13.5056L19.9993 16.3296H12.3335H12.3324H3.7015L6.70446 13.3421ZM0.696473 19.9188C0.696473 19.0985 1.32209 18.4325 2.09455 18.4325C2.86648 18.4325 5.38911 19.9523 5.38911 20.7726C5.38911 21.593 2.86648 21.403 2.09455 21.403C1.32209 21.403 0.696473 20.7397 0.696473 19.9188ZM4.88914 25.3451H4.62286H4.35659L2.77704 25.3477C2.33859 25.2076 2.0294 25.0442 1.81069 24.8686C1.70004 24.78 1.61525 24.6876 1.54907 24.5958C1.48237 24.503 1.43377 24.4117 1.40223 24.3204C1.20576 23.7505 1.61163 23.2268 1.61163 23.2268H4.30747L6.1047 25.344L4.88914 25.3451ZM16.2092 25.3461H12.3335H12.3324H8.4567C7.64857 25.3461 6.99245 24.6728 6.99245 23.8439H12.3324H12.3335H17.6734C17.6734 24.6738 17.0173 25.3461 16.2092 25.3461ZM16.5494 22.8187H12.3335H12.3324H8.11649C7.23753 22.8187 6.52401 21.7065 6.52401 20.3348H12.3324H12.3335H18.1419C18.1419 21.7071 17.4284 22.8187 16.5494 22.8187ZM23.2642 24.3215C23.2321 24.4128 23.1835 24.504 23.1168 24.5964C23.0511 24.6882 22.9664 24.7805 22.8552 24.8691C22.637 25.0447 22.3273 25.2092 21.8888 25.3483L20.3093 25.3456H20.043H19.7767H18.5602L20.3584 23.2284H23.0537C23.0537 23.2284 23.4601 23.7505 23.2642 24.3215ZM22.5713 21.403C21.7999 21.403 19.2773 21.5919 19.2773 20.7726C19.2773 19.9533 21.7999 18.4325 22.5713 18.4325C23.3438 18.4325 23.9694 19.0985 23.9694 19.9188C23.9694 20.7387 23.3438 21.403 22.5713 21.403Z" fill="#2E1066"/>
<path d="M23.4296 16.9234C23.4126 16.9032 23.3981 16.8836 23.3779 16.864L22.4902 15.9847C23.2264 15.8133 24.019 15.1803 24.019 14.5308C24.019 13.7741 22.9958 13.5056 22.1225 13.5056C21.2095 13.5056 21.1035 14.1476 21.0926 14.6013L18.8021 12.335C18.3368 11.8622 17.4542 11.4902 16.7945 11.4902H12.3335H12.3324H7.87038C7.21116 11.4902 6.32909 11.8622 5.86324 12.335L3.57328 14.6013C3.56138 14.1476 3.45539 13.5056 2.54333 13.5056C1.66902 13.5056 0.646321 13.7741 0.646321 14.5308C0.646321 15.1803 1.43946 15.8133 2.17572 15.9847L1.28797 16.864C1.2678 16.8836 1.25384 16.9032 1.23626 16.9234C0.286462 17.7565 -0.333984 19.3017 -0.333984 20.4229V23.7548C-0.333984 24.5635 -0.0232443 25.2973 0.4788 25.8444V27.1365C0.4788 27.8921 1.09511 28.5082 1.85309 28.5082H3.51485C4.27283 28.5082 4.88862 27.8932 4.88862 27.1365V26.8059H12.3324H12.3335H19.7767V27.1365C19.7767 27.8932 20.392 28.5082 21.151 28.5082H22.8123C23.5708 28.5082 24.186 27.8921 24.186 27.1365V25.8444C24.6886 25.2973 24.9988 24.5635 24.9988 23.7548V20.4229C24.9999 19.3017 24.3794 17.7565 23.4296 16.9234ZM6.70446 13.3421C7.02658 13.0667 7.58963 12.8577 7.87038 12.8577L10.9993 12.9995L12.6365 13.3421H16.5494C16.8301 13.3421 17.3513 13.2302 17.6734 13.5056L19.9993 16.3296H12.3335H12.3324H3.7015L6.70446 13.3421ZM0.696473 19.9188C0.696473 19.0985 1.32209 18.4325 2.09455 18.4325C2.86648 18.4325 5.38911 19.9523 5.38911 20.7726C5.38911 21.593 2.86648 21.403 2.09455 21.403C1.32209 21.403 0.696473 20.7397 0.696473 19.9188ZM4.88914 25.3451H4.62286H4.35659L2.77704 25.3477C2.33859 25.2076 2.0294 25.0442 1.81069 24.8686C1.70004 24.78 1.61525 24.6876 1.54907 24.5958C1.48237 24.503 1.43377 24.4117 1.40223 24.3204C1.20576 23.7505 1.61163 23.2268 1.61163 23.2268H4.30747L6.1047 25.344L4.88914 25.3451ZM16.2092 25.3461H12.3335H12.3324H8.4567C7.64857 25.3461 6.99245 24.6728 6.99245 23.8439H12.3324H12.3335H17.6734C17.6734 24.6738 17.0173 25.3461 16.2092 25.3461ZM16.5494 22.8187H12.3335H12.3324H8.11649C7.23753 22.8187 6.52401 21.7065 6.52401 20.3348H12.3324H12.3335H18.1419C18.1419 21.7071 17.4284 22.8187 16.5494 22.8187ZM23.2642 24.3215C23.2321 24.4128 23.1835 24.504 23.1168 24.5964C23.0511 24.6882 22.9664 24.7805 22.8552 24.8691C22.637 25.0447 22.3273 25.2092 21.8888 25.3483L20.3093 25.3456H20.043H19.7767H18.5602L20.3584 23.2284H23.0537C23.0537 23.2284 23.4601 23.7505 23.2642 24.3215ZM22.5713 21.403C21.7999 21.403 19.2773 21.5919 19.2773 20.7726C19.2773 19.9533 21.7999 18.4325 22.5713 18.4325C23.3438 18.4325 23.9694 19.0985 23.9694 19.9188C23.9694 20.7387 23.3438 21.403 22.5713 21.403Z" fill="#410F9E"/>
<path d="M23.4296 16.9234C23.4126 16.9032 23.3981 16.8836 23.3779 16.864L22.4902 15.9847C23.2264 15.8133 24.019 15.1803 24.019 14.5308C24.019 13.7741 22.9958 13.5056 22.1225 13.5056C21.2095 13.5056 21.1035 14.1476 21.0926 14.6013L18.8021 12.335C18.3368 11.8622 17.4542 11.4902 16.7945 11.4902H12.3335H12.3324H7.87038C7.21116 11.4902 6.32909 11.8622 5.86324 12.335L3.57328 14.6013C3.56138 14.1476 3.45539 13.5056 2.54333 13.5056C1.66902 13.5056 0.646321 13.7741 0.646321 14.5308C0.646321 15.1803 1.43946 15.8133 2.17572 15.9847L1.28797 16.864C1.2678 16.8836 1.25384 16.9032 1.23626 16.9234C0.286462 17.7565 -0.333984 19.3017 -0.333984 20.4229V23.7548C-0.333984 24.5635 -0.0232443 25.2973 0.4788 25.8444V27.1365C0.4788 27.8921 1.09511 28.5082 1.85309 28.5082H3.51485C4.27283 28.5082 4.88862 27.8932 4.88862 27.1365V26.8059H12.3324H12.3335H19.7767V27.1365C19.7767 27.8932 20.392 28.5082 21.151 28.5082H22.8123C23.5708 28.5082 24.186 27.8921 24.186 27.1365V25.8444C24.6886 25.2973 24.9988 24.5635 24.9988 23.7548V20.4229C24.9999 19.3017 24.3794 17.7565 23.4296 16.9234ZM6.70446 13.3421C7.02658 13.0667 7.58963 12.8577 7.87038 12.8577L10.9993 12.9995L12.6365 13.3421H16.5494C16.8301 13.3421 17.3513 13.2302 17.6734 13.5056L19.9993 16.3296H12.3335H12.3324H3.7015L6.70446 13.3421ZM0.696473 19.9188C0.696473 19.0985 1.32209 18.4325 2.09455 18.4325C2.86648 18.4325 5.38911 19.9523 5.38911 20.7726C5.38911 21.593 2.86648 21.403 2.09455 21.403C1.32209 21.403 0.696473 20.7397 0.696473 19.9188ZM4.88914 25.3451H4.62286H4.35659L2.77704 25.3477C2.33859 25.2076 2.0294 25.0442 1.81069 24.8686C1.70004 24.78 1.61525 24.6876 1.54907 24.5958C1.48237 24.503 1.43377 24.4117 1.40223 24.3204C1.20576 23.7505 1.61163 23.2268 1.61163 23.2268H4.30747L6.1047 25.344L4.88914 25.3451ZM16.2092 25.3461H12.3335H12.3324H8.4567C7.64857 25.3461 6.99245 24.6728 6.99245 23.8439H12.3324H12.3335H17.6734C17.6734 24.6738 17.0173 25.3461 16.2092 25.3461ZM16.5494 22.8187H12.3335H12.3324H8.11649C7.23753 22.8187 6.52401 21.7065 6.52401 20.3348H12.3324H12.3335H18.1419C18.1419 21.7071 17.4284 22.8187 16.5494 22.8187ZM23.2642 24.3215C23.2321 24.4128 23.1835 24.504 23.1168 24.5964C23.0511 24.6882 22.9664 24.7805 22.8552 24.8691C22.637 25.0447 22.3273 25.2092 21.8888 25.3483L20.3093 25.3456H20.043H19.7767H18.5602L20.3584 23.2284H23.0537C23.0537 23.2284 23.4601 23.7505 23.2642 24.3215ZM22.5713 21.403C21.7999 21.403 19.2773 21.5919 19.2773 20.7726C19.2773 19.9533 21.7999 18.4325 22.5713 18.4325C23.3438 18.4325 23.9694 19.0985 23.9694 19.9188C23.9694 20.7387 23.3438 21.403 22.5713 21.403Z" fill="#453888"/>
<path d="M23.4296 16.9234C23.4126 16.9032 23.3981 16.8836 23.3779 16.864L22.4902 15.9847C23.2264 15.8133 24.019 15.1803 24.019 14.5308C24.019 13.7741 22.9958 13.5056 22.1225 13.5056C21.2095 13.5056 21.1035 14.1476 21.0926 14.6013L18.8021 12.335C18.3368 11.8622 17.4542 11.4902 16.7945 11.4902H12.3335H12.3324H7.87038C7.21116 11.4902 6.32909 11.8622 5.86324 12.335L3.57328 14.6013C3.56138 14.1476 3.45539 13.5056 2.54333 13.5056C1.66902 13.5056 0.646321 13.7741 0.646321 14.5308C0.646321 15.1803 1.43946 15.8133 2.17572 15.9847L1.28797 16.864C1.2678 16.8836 1.25384 16.9032 1.23626 16.9234C0.286462 17.7565 -0.333984 19.3017 -0.333984 20.4229V23.7548C-0.333984 24.5635 -0.0232443 25.2973 0.4788 25.8444V27.1365C0.4788 27.8921 1.09511 28.5082 1.85309 28.5082H3.51485C4.27283 28.5082 4.88862 27.8932 4.88862 27.1365V26.8059H12.3324H12.3335H19.7767V27.1365C19.7767 27.8932 20.392 28.5082 21.151 28.5082H22.8123C23.5708 28.5082 24.186 27.8921 24.186 27.1365V25.8444C24.6886 25.2973 24.9988 24.5635 24.9988 23.7548V20.4229C24.9999 19.3017 24.3794 17.7565 23.4296 16.9234ZM6.70446 13.3421C7.02658 13.0667 7.58963 12.8577 7.87038 12.8577L10.9993 12.9995L12.6365 13.3421H16.5494C16.8301 13.3421 17.3513 13.2302 17.6734 13.5056L19.9993 16.3296H12.3335H12.3324H3.7015L6.70446 13.3421ZM0.696473 19.9188C0.696473 19.0985 1.32209 18.4325 2.09455 18.4325C2.86648 18.4325 5.38911 19.9523 5.38911 20.7726C5.38911 21.593 2.86648 21.403 2.09455 21.403C1.32209 21.403 0.696473 20.7397 0.696473 19.9188ZM4.88914 25.3451H4.62286H4.35659L2.77704 25.3477C2.33859 25.2076 2.0294 25.0442 1.81069 24.8686C1.70004 24.78 1.61525 24.6876 1.54907 24.5958C1.48237 24.503 1.43377 24.4117 1.40223 24.3204C1.20576 23.7505 1.61163 23.2268 1.61163 23.2268H4.30747L6.1047 25.344L4.88914 25.3451ZM16.2092 25.3461H12.3335H12.3324H8.4567C7.64857 25.3461 6.99245 24.6728 6.99245 23.8439H12.3324H12.3335H17.6734C17.6734 24.6738 17.0173 25.3461 16.2092 25.3461ZM16.5494 22.8187H12.3335H12.3324H8.11649C7.23753 22.8187 6.52401 21.7065 6.52401 20.3348H12.3324H12.3335H18.1419C18.1419 21.7071 17.4284 22.8187 16.5494 22.8187ZM23.2642 24.3215C23.2321 24.4128 23.1835 24.504 23.1168 24.5964C23.0511 24.6882 22.9664 24.7805 22.8552 24.8691C22.637 25.0447 22.3273 25.2092 21.8888 25.3483L20.3093 25.3456H20.043H19.7767H18.5602L20.3584 23.2284H23.0537C23.0537 23.2284 23.4601 23.7505 23.2642 24.3215ZM22.5713 21.403C21.7999 21.403 19.2773 21.5919 19.2773 20.7726C19.2773 19.9533 21.7999 18.4325 22.5713 18.4325C23.3438 18.4325 23.9694 19.0985 23.9694 19.9188C23.9694 20.7387 23.3438 21.403 22.5713 21.403Z" fill="#5946D7"/>
<path d="M16.2092 25.3461H12.3335H12.3324H8.4567C7.64857 25.3461 6.99245 24.6728 6.99245 23.8439H12.3324H12.3335H17.6734C17.6734 24.6738 17.0173 25.3461 16.2092 25.3461Z" fill="#2E1066"/>
<path d="M16.2092 25.3461H12.3335H12.3324H8.4567C7.64857 25.3461 6.99245 24.6728 6.99245 23.8439H12.3324H12.3335H17.6734C17.6734 24.6738 17.0173 25.3461 16.2092 25.3461Z" fill="#410F9E"/>
<path d="M16.2092 25.3461H12.3335H12.3324H8.4567C7.64857 25.3461 6.99245 24.6728 6.99245 23.8439H12.3324H12.3335H17.6734C17.6734 24.6738 17.0173 25.3461 16.2092 25.3461Z" fill="#453888"/>
<path d="M16.2092 25.3461H12.3335H12.3324H8.4567C7.64857 25.3461 6.99245 24.6728 6.99245 23.8439H12.3324H12.3335H17.6734C17.6734 24.6738 17.0173 25.3461 16.2092 25.3461Z" fill="#5946D7"/>
</g>
<circle cx="20" cy="20" r="11.5" stroke="white" stroke-width="3"/>
</g>
</g>
<defs>
<clipPath id="clip0_1_15627">
<rect width="40" height="40" fill="white"/>
</clipPath>
<clipPath id="clip1_1_15627">
<rect width="40" height="40" fill="white"/>
</clipPath>
<clipPath id="clip2_1_15627">
<rect width="40" height="40" fill="white"/>
</clipPath>
<clipPath id="clip3_1_15627">
<rect width="19" height="26" fill="white" transform="translate(6 7)"/>
</clipPath>
</defs>
</svg>
